<svg width="48" height="48" viewBox="0 0 48 48" fill="none" xmlns="http://www.w3.org/2000/svg">
<rect width="48" height="48" rx="24" fill="#00A9E0" fill-opacity="0.1"/>
<path d="M24.3013 15C25.043 15 25.768 15.2199 26.3847 15.632C27.0013 16.044 27.482 16.6297 27.7658 17.3149C28.0496 18.0002 28.1239 18.7542 27.9792 19.4816C27.8345 20.209 27.4774 20.8772 26.9529 21.4017C26.4285 21.9261 25.7603 22.2833 25.0329 22.4279C24.3054 22.5726 23.5514 22.4984 22.8662 22.2145C22.181 21.9307 21.5953 21.4501 21.1833 20.8334C20.7712 20.2167 20.5513 19.4917 20.5513 18.75C20.5513 17.7554 20.9464 16.8016 21.6496 16.0983C22.3529 15.3951 23.3067 15 24.3013 15V15ZM24.3013 13.5C23.2629 13.5 22.2479 13.8079 21.3845 14.3848C20.5212 14.9617 19.8483 15.7816 19.4509 16.7409C19.0535 17.7002 18.9496 18.7558 19.1521 19.7742C19.3547 20.7926 19.8547 21.7281 20.589 22.4623C21.3232 23.1965 22.2586 23.6966 23.277 23.8991C24.2954 24.1017 25.351 23.9977 26.3104 23.6004C27.2697 23.203 28.0896 22.5301 28.6665 21.6667C29.2434 20.8034 29.5513 19.7884 29.5513 18.75C29.5513 17.3576 28.9981 16.0223 28.0136 15.0377C27.029 14.0531 25.6937 13.5 24.3013 13.5V13.5Z" fill="#00A9E0"/>
<path d="M31.8013 34.5H30.3013V30.75C30.3013 30.2575 30.2043 29.7699 30.0158 29.3149C29.8274 28.86 29.5511 28.4466 29.2029 28.0983C28.8547 27.7501 28.4413 27.4739 27.9863 27.2855C27.5314 27.097 27.0437 27 26.5513 27H22.0513C21.0567 27 20.1029 27.3951 19.3996 28.0983C18.6964 28.8016 18.3013 29.7554 18.3013 30.75V34.5H16.8013V30.75C16.8013 29.3576 17.3544 28.0223 18.339 27.0377C19.3235 26.0531 20.6589 25.5 22.0513 25.5H26.5513C27.9437 25.5 29.279 26.0531 30.2636 27.0377C31.2481 28.0223 31.8013 29.3576 31.8013 30.75V34.5Z" fill="#00A9E0"/>
</svg>
