<svg width="14" height="15" viewBox="0 0 14 15" fill="none" xmlns="http://www.w3.org/2000/svg">
<path d="M0.666504 3V7C0.666504 7 0.666504 9 5.33317 9C9.99984 9 9.99984 7 9.99984 7V3" stroke="#BE2C42" stroke-linecap="round" stroke-linejoin="round"/>
<path d="M5.33317 1C9.99984 1 9.99984 3 9.99984 3C9.99984 3 9.99984 5 5.33317 5C0.666504 5 0.666504 3 0.666504 3C0.666504 3 0.666504 1 5.33317 1Z" stroke="#BE2C42" stroke-linecap="round" stroke-linejoin="round"/>
<path d="M5.33317 13C0.666504 13 0.666504 11 0.666504 11V7" stroke="#BE2C42" stroke-linecap="round" stroke-linejoin="round"/>
<path d="M10.6663 13.0002C11.02 13.0002 11.3591 12.8597 11.6092 12.6096C11.8592 12.3596 11.9997 12.0205 11.9997 11.6668C11.9997 11.3132 11.8592 10.9741 11.6092 10.724C11.3591 10.474 11.02 10.3335 10.6663 10.3335C10.3127 10.3335 9.97358 10.474 9.72353 10.724C9.47348 10.9741 9.33301 11.3132 9.33301 11.6668C9.33301 12.0205 9.47348 12.3596 9.72353 12.6096C9.97358 12.8597 10.3127 13.0002 10.6663 13.0002V13.0002Z" stroke="#BE2C42" stroke-linecap="round" stroke-linejoin="round"/>
<path d="M10.6665 13.6665C11.1969 13.6665 11.7056 13.4558 12.0807 13.0807C12.4558 12.7056 12.6665 12.1969 12.6665 11.6665C12.6665 11.1361 12.4558 10.6274 12.0807 10.2523C11.7056 9.87722 11.1969 9.6665 10.6665 9.6665C10.1361 9.6665 9.62736 9.87722 9.25229 10.2523C8.87722 10.6274 8.6665 11.1361 8.6665 11.6665C8.6665 12.1969 8.87722 12.7056 9.25229 13.0807C9.62736 13.4558 10.1361 13.6665 10.6665 13.6665Z" stroke="#BE2C42" stroke-linecap="round" stroke-linejoin="round" stroke-dasharray="0.2 1.33"/>
</svg>
