<svg width="14" height="15" viewBox="0 0 14 15" fill="none" xmlns="http://www.w3.org/2000/svg">
<path d="M0.666626 3V7C0.666626 7 0.666626 9 5.33329 9C9.99996 9 9.99996 7 9.99996 7V3" stroke="white" stroke-linecap="round" stroke-linejoin="round"/>
<path d="M5.33329 1C9.99996 1 9.99996 3 9.99996 3C9.99996 3 9.99996 5 5.33329 5C0.666626 5 0.666626 3 0.666626 3C0.666626 3 0.666626 1 5.33329 1Z" stroke="white" stroke-linecap="round" stroke-linejoin="round"/>
<path d="M5.33329 13C0.666626 13 0.666626 11 0.666626 11V7" stroke="white" stroke-linecap="round" stroke-linejoin="round"/>
<path d="M10.6667 13.0002C11.0203 13.0002 11.3595 12.8597 11.6095 12.6096C11.8596 12.3596 12 12.0205 12 11.6668C12 11.3132 11.8596 10.9741 11.6095 10.724C11.3595 10.474 11.0203 10.3335 10.6667 10.3335C10.3131 10.3335 9.97395 10.474 9.7239 10.724C9.47385 10.9741 9.33337 11.3132 9.33337 11.6668C9.33337 12.0205 9.47385 12.3596 9.7239 12.6096C9.97395 12.8597 10.3131 13.0002 10.6667 13.0002V13.0002Z" stroke="white" stroke-linecap="round" stroke-linejoin="round"/>
<path d="M10.6666 13.6665C11.1971 13.6665 11.7058 13.4558 12.0808 13.0807C12.4559 12.7056 12.6666 12.1969 12.6666 11.6665C12.6666 11.1361 12.4559 10.6274 12.0808 10.2523C11.7058 9.87722 11.1971 9.6665 10.6666 9.6665C10.1362 9.6665 9.62748 9.87722 9.25241 10.2523C8.87734 10.6274 8.66663 11.1361 8.66663 11.6665C8.66663 12.1969 8.87734 12.7056 9.25241 13.0807C9.62748 13.4558 10.1362 13.6665 10.6666 13.6665Z" stroke="white" stroke-linecap="round" stroke-linejoin="round" stroke-dasharray="0.2 1.33"/>
</svg>
