<svg width="10" height="10" viewBox="0 0 10 10" fill="none" xmlns="http://www.w3.org/2000/svg">
<path d="M8.78125 5.90631L4.09375 1.21881C3.3125 0.406307 2.03125 0.406307 1.21875 1.18756C0.40625 1.96881 0.40625 3.28131 1.21875 4.06256L1.25 4.09381L2.125 5.00006L2.5625 4.56256L1.65625 3.65631C1.125 3.12506 1.125 2.21881 1.65625 1.68756C2.1875 1.15631 3.09375 1.12506 3.625 1.65631L3.65625 1.68756L8.3125 6.34381C8.875 6.87506 8.875 7.78131 8.34375 8.31256C7.8125 8.87506 6.90625 8.87506 6.375 8.34381L6.34375 8.31256L4.03125 6.00006C3.71875 5.68756 3.75 5.18756 4.03125 4.90631C4.34375 4.62506 4.8125 4.62506 5.125 4.90631L6.40625 6.18756L6.84375 5.75006L5.53125 4.43756C4.96875 3.90631 4.09375 3.93756 3.5625 4.50006C3.0625 5.03131 3.0625 5.87506 3.5625 6.43756L5.90625 8.78131C6.6875 9.59381 7.96875 9.59381 8.78125 8.81256C9.59375 8.03131 9.59375 6.71881 8.78125 5.90631C8.78125 5.90631 8.78125 5.93756 8.78125 5.90631Z" fill="black"/>
</svg>
