<svg width="11" height="11" viewBox="0 0 11 11" fill="none" xmlns="http://www.w3.org/2000/svg">
<path d="M10.0549 2.32391C9.86326 2.13163 9.63557 1.97907 9.38487 1.87497C9.13417 1.77087 8.86539 1.71729 8.59393 1.71729C8.32248 1.71729 8.05369 1.77087 7.80299 1.87497C7.55229 1.97907 7.32461 2.13163 7.13299 2.32391L7.62112 2.81204C7.7491 2.68406 7.90103 2.58254 8.06824 2.51328C8.23545 2.44402 8.41466 2.40837 8.59565 2.40837C8.77664 2.40837 8.95585 2.44402 9.12306 2.51328C9.29027 2.58254 9.4422 2.68406 9.57018 2.81204C9.69816 2.94001 9.79968 3.09194 9.86894 3.25916C9.9382 3.42637 9.97385 3.60558 9.97385 3.78657C9.97385 3.96756 9.9382 4.14677 9.86894 4.31398C9.79968 4.48119 9.69816 4.63312 9.57018 4.7611L6.82018 7.5111C6.56218 7.76956 6.21206 7.91494 5.84687 7.91527C5.48167 7.91559 5.1313 7.77082 4.87284 7.51282C4.61438 7.25481 4.46899 6.9047 4.46867 6.5395C4.46835 6.1743 4.61311 5.82394 4.87112 5.56547L5.35581 5.07735L4.87112 4.58922L4.38299 5.07735C4.19071 5.26896 4.03815 5.49665 3.93405 5.74735C3.82995 5.99805 3.77637 6.26683 3.77637 6.53829C3.77637 6.80974 3.82995 7.07852 3.93405 7.32922C4.03815 7.57993 4.19071 7.80761 4.38299 7.99922C4.77194 8.38319 5.29739 8.59708 5.84393 8.59391C6.11643 8.59503 6.38644 8.54214 6.63838 8.4383C6.89032 8.33446 7.11918 8.18172 7.31174 7.98891L10.0617 5.23891C10.4471 4.85128 10.6628 4.32655 10.6615 3.77999C10.6602 3.23342 10.442 2.70972 10.0549 2.32391Z" fill="#00A9E0"/>
<path d="M1.44029 8.53169C1.31193 8.40393 1.21007 8.25207 1.14057 8.08483C1.07107 7.91759 1.03529 7.73827 1.03529 7.55716C1.03529 7.37605 1.07107 7.19673 1.14057 7.02949C1.21007 6.86225 1.31193 6.71039 1.44029 6.58263L4.19029 3.83263C4.31805 3.70427 4.46991 3.60242 4.63715 3.53292C4.80439 3.46341 4.98371 3.42764 5.16482 3.42764C5.34592 3.42764 5.52525 3.46341 5.69249 3.53292C5.85972 3.60242 6.01159 3.70427 6.13935 3.83263C6.2669 3.9614 6.3673 4.11446 6.43462 4.28274C6.50193 4.45102 6.53478 4.63111 6.53122 4.81232C6.53227 4.99409 6.49727 5.17427 6.42823 5.34243C6.3592 5.5106 6.25751 5.6634 6.12904 5.792L5.40029 6.53107L5.88841 7.01919L6.61716 6.29044C7.00508 5.90252 7.22301 5.37639 7.22301 4.82779C7.22301 4.27918 7.00508 3.75305 6.61716 3.36513C6.22924 2.97721 5.70311 2.75928 5.15451 2.75928C4.6059 2.75928 4.07977 2.97721 3.69185 3.36513L0.941849 6.11513C0.749052 6.3068 0.596052 6.5347 0.491648 6.78572C0.387244 7.03674 0.333496 7.30592 0.333496 7.57779C0.333496 7.84965 0.387244 8.11883 0.491648 8.36985C0.596052 8.62087 0.749052 8.84877 0.941849 9.04044C1.33332 9.42148 1.85997 9.63165 2.40622 9.62482C2.95729 9.62534 3.48619 9.40785 3.87747 9.01982L3.38935 8.53169C3.26159 8.66005 3.10972 8.76191 2.94249 8.83141C2.77525 8.90091 2.59592 8.93669 2.41482 8.93669C2.23371 8.93669 2.05439 8.90091 1.88715 8.83141C1.71991 8.76191 1.56805 8.66005 1.44029 8.53169Z" fill="#00A9E0"/>
</svg>
