<svg width="40" height="40" viewBox="0 0 40 40" fill="none" xmlns="http://www.w3.org/2000/svg">
<circle cx="20" cy="20" r="20" fill="#ECECEC"/>
<path d="M27.5 27.5H12.5V12.5H20V11H12.5C12.1023 11.0004 11.721 11.1586 11.4398 11.4398C11.1586 11.721 11.0004 12.1023 11 12.5V27.5C11.0004 27.8977 11.1586 28.279 11.4398 28.5602C11.721 28.8414 12.1023 28.9996 12.5 29H27.5C27.8977 28.9996 28.279 28.8414 28.5602 28.5602C28.8414 28.279 28.9996 27.8977 29 27.5V20H27.5V27.5Z" fill="#BF0D3E"/>
<path d="M27.5 27.5H12.5V12.5H20V11H12.5C12.1023 11.0004 11.721 11.1586 11.4398 11.4398C11.1586 11.721 11.0004 12.1023 11 12.5V27.5C11.0004 27.8977 11.1586 28.279 11.4398 28.5602C11.721 28.8414 12.1023 28.9996 12.5 29H27.5C27.8977 28.9996 28.279 28.8414 28.5602 28.5602C28.8414 28.279 28.9996 27.8977 29 27.5V20H27.5V27.5Z" fill="#BF0D3E"/>
<path d="M27.5 12.5V9.5H26V12.5H23V14H26V17H27.5V14H30.5V12.5H27.5Z" fill="#BF0D3E"/>
</svg>
