<svg width="14" height="14" viewBox="0 0 14 14" fill="none" xmlns="http://www.w3.org/2000/svg">
<path d="M1 3.93333V1.4C1 1.29391 1.04214 1.19217 1.11716 1.11716C1.19217 1.04214 1.29391 1 1.4 1H5.26667C5.37275 1 5.47449 1.04214 5.54951 1.11716C5.62452 1.19217 5.66667 1.29391 5.66667 1.4V3.93333C5.66667 4.03942 5.62452 4.14116 5.54951 4.21618C5.47449 4.29119 5.37275 4.33333 5.26667 4.33333H1.4C1.29391 4.33333 1.19217 4.29119 1.11716 4.21618C1.04214 4.14116 1 4.03942 1 3.93333V3.93333Z" stroke="#BF0D3E"/>
<path d="M8.33301 12.5993V10.066C8.33301 9.95993 8.37515 9.85819 8.45016 9.78317C8.52518 9.70816 8.62692 9.66602 8.73301 9.66602H12.5997C12.7058 9.66602 12.8075 9.70816 12.8825 9.78317C12.9575 9.85819 12.9997 9.95993 12.9997 10.066V12.5993C12.9997 12.7054 12.9575 12.8072 12.8825 12.8822C12.8075 12.9572 12.7058 12.9993 12.5997 12.9993H8.73301C8.62692 12.9993 8.52518 12.9572 8.45016 12.8822C8.37515 12.8072 8.33301 12.7054 8.33301 12.5993V12.5993Z" stroke="#BF0D3E"/>
<path d="M8.3335 7.26667V1.4C8.3335 1.29391 8.37564 1.19217 8.45065 1.11716C8.52567 1.04214 8.62741 1 8.7335 1H12.6002C12.7062 1 12.808 1.04214 12.883 1.11716C12.958 1.19217 13.0002 1.29391 13.0002 1.4V7.26667C13.0002 7.37275 12.958 7.47449 12.883 7.54951C12.808 7.62452 12.7062 7.66667 12.6002 7.66667H8.7335C8.62741 7.66667 8.52567 7.62452 8.45065 7.54951C8.37564 7.47449 8.3335 7.37275 8.3335 7.26667V7.26667Z" stroke="#BF0D3E"/>
<path d="M1 12.6007V6.73398C1 6.6279 1.04214 6.52616 1.11716 6.45114C1.19217 6.37613 1.29391 6.33398 1.4 6.33398H5.26667C5.37275 6.33398 5.47449 6.37613 5.54951 6.45114C5.62452 6.52616 5.66667 6.6279 5.66667 6.73398V12.6007C5.66667 12.7067 5.62452 12.8085 5.54951 12.8835C5.47449 12.9585 5.37275 13.0007 5.26667 13.0007H1.4C1.29391 13.0007 1.19217 12.9585 1.11716 12.8835C1.04214 12.8085 1 12.7067 1 12.6007V12.6007Z" stroke="#BF0D3E"/>
</svg>
