<svg width="14" height="14" viewBox="0 0 14 14" fill="none" xmlns="http://www.w3.org/2000/svg">
<path d="M1 3.93333V1.4C1 1.29391 1.04214 1.19217 1.11716 1.11716C1.19217 1.04214 1.29391 1 1.4 1H5.26667C5.37275 1 5.47449 1.04214 5.54951 1.11716C5.62452 1.19217 5.66667 1.29391 5.66667 1.4V3.93333C5.66667 4.03942 5.62452 4.14116 5.54951 4.21618C5.47449 4.29119 5.37275 4.33333 5.26667 4.33333H1.4C1.29391 4.33333 1.19217 4.29119 1.11716 4.21618C1.04214 4.14116 1 4.03942 1 3.93333V3.93333Z" stroke="white"/>
<path d="M8.33337 12.5998V10.0665C8.33337 9.96042 8.37552 9.85868 8.45053 9.78366C8.52555 9.70865 8.62729 9.6665 8.73337 9.6665H12.6C12.7061 9.6665 12.8079 9.70865 12.8829 9.78366C12.9579 9.85868 13 9.96042 13 10.0665V12.5998C13 12.7059 12.9579 12.8077 12.8829 12.8827C12.8079 12.9577 12.7061 12.9998 12.6 12.9998H8.73337C8.62729 12.9998 8.52555 12.9577 8.45053 12.8827C8.37552 12.8077 8.33337 12.7059 8.33337 12.5998V12.5998Z" stroke="white"/>
<path d="M8.33337 7.26667V1.4C8.33337 1.29391 8.37552 1.19217 8.45053 1.11716C8.52555 1.04214 8.62729 1 8.73337 1H12.6C12.7061 1 12.8079 1.04214 12.8829 1.11716C12.9579 1.19217 13 1.29391 13 1.4V7.26667C13 7.37275 12.9579 7.47449 12.8829 7.54951C12.8079 7.62452 12.7061 7.66667 12.6 7.66667H8.73337C8.62729 7.66667 8.52555 7.62452 8.45053 7.54951C8.37552 7.47449 8.33337 7.37275 8.33337 7.26667V7.26667Z" stroke="white"/>
<path d="M1 12.6002V6.7335C1 6.62741 1.04214 6.52567 1.11716 6.45065C1.19217 6.37564 1.29391 6.3335 1.4 6.3335H5.26667C5.37275 6.3335 5.47449 6.37564 5.54951 6.45065C5.62452 6.52567 5.66667 6.62741 5.66667 6.7335V12.6002C5.66667 12.7062 5.62452 12.808 5.54951 12.883C5.47449 12.958 5.37275 13.0002 5.26667 13.0002H1.4C1.29391 13.0002 1.19217 12.958 1.11716 12.883C1.04214 12.808 1 12.7062 1 12.6002V12.6002Z" stroke="white"/>
</svg>
