<svg width="48" height="48" viewBox="0 0 48 48" fill="none" xmlns="http://www.w3.org/2000/svg">
<rect width="48" height="48" rx="24" fill="#AD1AAC" fill-opacity="0.1"/>
<path d="M23.6987 28.5C24.2921 28.5 24.8721 28.3241 25.3654 27.9944C25.8588 27.6648 26.2433 27.1962 26.4704 26.6481C26.6974 26.0999 26.7568 25.4967 26.6411 24.9147C26.5253 24.3328 26.2396 23.7982 25.8201 23.3787C25.4005 22.9591 24.8659 22.6734 24.284 22.5576C23.7021 22.4419 23.0989 22.5013 22.5507 22.7284C22.0025 22.9554 21.534 23.3399 21.2043 23.8333C20.8747 24.3266 20.6987 24.9067 20.6987 25.5C20.6987 26.2957 21.0148 27.0587 21.5774 27.6213C22.14 28.1839 22.9031 28.5 23.6987 28.5ZM23.6987 24C23.9954 24 24.2854 24.088 24.5321 24.2528C24.7788 24.4176 24.971 24.6519 25.0845 24.926C25.1981 25.2001 25.2278 25.5017 25.1699 25.7926C25.112 26.0836 24.9692 26.3509 24.7594 26.5607C24.5496 26.7704 24.2823 26.9133 23.9914 26.9712C23.7004 27.0291 23.3988 26.9994 23.1247 26.8858C22.8506 26.7723 22.6163 26.58 22.4515 26.3334C22.2867 26.0867 22.1987 25.7967 22.1987 25.5C22.1987 25.1022 22.3568 24.7206 22.6381 24.4393C22.9194 24.158 23.3009 24 23.6987 24Z" fill="#AD1AAC"/>
<path d="M22.1987 16.5H25.1987V18H22.1987V16.5Z" fill="#AD1AAC"/>
<path d="M29.6987 13.5H17.6987C17.301 13.5004 16.9197 13.6586 16.6385 13.9398C16.3573 14.221 16.1991 14.6023 16.1987 15V33C16.1991 33.3977 16.3573 33.779 16.6385 34.0602C16.9197 34.3414 17.301 34.4996 17.6987 34.5H29.6987C30.0964 34.4994 30.4776 34.3412 30.7587 34.06C31.0399 33.7788 31.1981 33.3976 31.1987 33V15C31.1983 14.6023 31.0402 14.221 30.759 13.9398C30.4777 13.6586 30.0964 13.5004 29.6987 13.5ZM26.6987 33H20.6987V31.5C20.6987 31.3011 20.7777 31.1103 20.9184 30.9697C21.0591 30.829 21.2498 30.75 21.4487 30.75H25.9487C26.1476 30.75 26.3384 30.829 26.4791 30.9697C26.6197 31.1103 26.6987 31.3011 26.6987 31.5V33ZM28.1987 33V31.5C28.1987 30.9033 27.9617 30.331 27.5397 29.909C27.1178 29.4871 26.5455 29.25 25.9487 29.25H21.4487C20.852 29.25 20.2797 29.4871 19.8577 29.909C19.4358 30.331 19.1987 30.9033 19.1987 31.5V33H17.6987V15H29.6987V33H28.1987Z" fill="#AD1AAC"/>
</svg>
