<svg width="18" height="18" viewBox="0 0 18 18" fill="none" xmlns="http://www.w3.org/2000/svg">
<path d="M16.5 2V16C16.5 16.1326 16.4473 16.2598 16.3536 16.3536C16.2598 16.4473 16.1326 16.5 16 16.5H2C1.86739 16.5 1.74021 16.4473 1.64645 16.3536C1.55268 16.2598 1.5 16.1326 1.5 16V2C1.5 1.86739 1.55268 1.74021 1.64645 1.64645C1.74021 1.55268 1.86739 1.5 2 1.5H16C16.1326 1.5 16.2598 1.55268 16.3536 1.64645C16.4473 1.74021 16.5 1.86739 16.5 2V2Z" stroke="#019CD0" stroke-width="1.25" stroke-linecap="round" stroke-linejoin="round"/>
<path d="M1.5 12.3333L7.33333 9.83331L16.5 14" stroke="#019CD0" stroke-width="1.25" stroke-linecap="round" stroke-linejoin="round"/>
<path d="M12.3332 7.33333C11.8911 7.33333 11.4672 7.15774 11.1547 6.84518C10.8421 6.53262 10.6665 6.10869 10.6665 5.66667C10.6665 5.22464 10.8421 4.80072 11.1547 4.48816C11.4672 4.17559 11.8911 4 12.3332 4C12.7752 4 13.1991 4.17559 13.5117 4.48816C13.8242 4.80072 13.9998 5.22464 13.9998 5.66667C13.9998 6.10869 13.8242 6.53262 13.5117 6.84518C13.1991 7.15774 12.7752 7.33333 12.3332 7.33333V7.33333Z" stroke="#019CD0" stroke-width="1.25" stroke-linecap="round" stroke-linejoin="round"/>
</svg>
