<svg width="16" height="16" viewBox="0 0 16 16" fill="none" xmlns="http://www.w3.org/2000/svg">
<path d="M9.00016 14.6666V11.9999M1.3335 10.3333V1.73325C1.3335 1.62717 1.37564 1.52542 1.45065 1.45041C1.52567 1.37539 1.62741 1.33325 1.7335 1.33325H14.2668C14.3729 1.33325 14.4747 1.37539 14.5497 1.45041C14.6247 1.52542 14.6668 1.62717 14.6668 1.73325V10.3333H1.3335ZM1.3335 10.3333V11.5999C1.3335 11.706 1.37564 11.8077 1.45065 11.8828C1.52567 11.9578 1.62741 11.9999 1.7335 11.9999H14.2668C14.3729 11.9999 14.4747 11.9578 14.5497 11.8828C14.6247 11.8077 14.6668 11.706 14.6668 11.5999V10.3333H1.3335ZM1.3335 10.3333H14.6668H1.3335ZM6.00016 14.6666H7.00016H6.00016ZM7.00016 14.6666V11.9999V14.6666ZM7.00016 14.6666H9.00016H7.00016ZM9.00016 14.6666H10.0002H9.00016Z" stroke="#BE2C42" stroke-linecap="round" stroke-linejoin="round"/>
</svg>
