<svg width="16" height="16" viewBox="0 0 16 16" fill="none" xmlns="http://www.w3.org/2000/svg">
<path d="M9.00004 14.6668V12.0002M1.33337 10.3335V1.7335C1.33337 1.62741 1.37552 1.52567 1.45053 1.45065C1.52555 1.37564 1.62729 1.3335 1.73337 1.3335H14.2667C14.3728 1.3335 14.4745 1.37564 14.5495 1.45065C14.6246 1.52567 14.6667 1.62741 14.6667 1.7335V10.3335H1.33337ZM1.33337 10.3335V11.6002C1.33337 11.7062 1.37552 11.808 1.45053 11.883C1.52555 11.958 1.62729 12.0002 1.73337 12.0002H14.2667C14.3728 12.0002 14.4745 11.958 14.5495 11.883C14.6246 11.808 14.6667 11.7062 14.6667 11.6002V10.3335H1.33337ZM1.33337 10.3335H14.6667H1.33337ZM6.00004 14.6668H7.00004H6.00004ZM7.00004 14.6668V12.0002V14.6668ZM7.00004 14.6668H9.00004H7.00004ZM9.00004 14.6668H10H9.00004Z" stroke="white" stroke-linecap="round" stroke-linejoin="round"/>
</svg>
