<svg width="11" height="11" viewBox="0 0 11 11" fill="none" xmlns="http://www.w3.org/2000/svg">
<path d="M10.875 10.345L8.04298 7.51298C8.72353 6.69597 9.06289 5.64804 8.99048 4.58719C8.91807 3.52634 8.43945 2.53425 7.6542 1.81729C6.86894 1.10034 5.83751 0.713729 4.77447 0.737884C3.71142 0.762038 2.69861 1.1951 1.94674 1.94698C1.19486 2.69886 0.761794 3.71167 0.73764 4.77471C0.713485 5.83775 1.1001 6.86919 1.81705 7.65444C2.534 8.4397 3.5261 8.91831 4.58695 8.99073C5.6478 9.06314 6.69572 8.72377 7.51273 8.04323L10.3447 10.8752L10.875 10.345ZM1.49998 4.87523C1.49998 4.20771 1.69792 3.55519 2.06877 3.00018C2.43962 2.44516 2.96673 2.01258 3.58343 1.75713C4.20013 1.50169 4.87873 1.43485 5.53341 1.56508C6.1881 1.6953 6.78947 2.01674 7.26147 2.48874C7.73347 2.96074 8.05491 3.56211 8.18513 4.2168C8.31536 4.87148 8.24852 5.55008 7.99308 6.16678C7.73763 6.78348 7.30505 7.31059 6.75003 7.68144C6.19502 8.05229 5.54249 8.25023 4.87498 8.25023C3.98018 8.24923 3.12231 7.89334 2.48959 7.26062C1.85687 6.6279 1.50097 5.77003 1.49998 4.87523Z" fill="black"/>
</svg>
