<svg width="11" height="12" viewBox="0 0 11 12" fill="none" xmlns="http://www.w3.org/2000/svg">
<path d="M5.5 10.8125C4.54818 10.8125 3.61773 10.5303 2.82632 10.0015C2.03491 9.47265 1.41808 8.72104 1.05383 7.84167C0.689585 6.9623 0.594282 5.99466 0.779973 5.06113C0.965664 4.1276 1.42401 3.27009 2.09705 2.59705C2.77009 1.92401 3.6276 1.46566 4.56113 1.27997C5.49466 1.09428 6.4623 1.18959 7.34167 1.55383C8.22104 1.91808 8.97265 2.53491 9.50145 3.32632C10.0303 4.11773 10.3125 5.04818 10.3125 6C10.3125 7.27636 9.80547 8.50043 8.90295 9.40295C8.00043 10.3055 6.77636 10.8125 5.5 10.8125ZM5.5 1.875C4.68415 1.875 3.88663 2.11693 3.20828 2.57019C2.52992 3.02345 2.00121 3.66769 1.689 4.42143C1.37679 5.17518 1.2951 6.00458 1.45426 6.80475C1.61343 7.60492 2.0063 8.33993 2.58319 8.91682C3.16008 9.49371 3.89508 9.88658 4.69526 10.0457C5.49543 10.2049 6.32483 10.1232 7.07857 9.81101C7.83232 9.49879 8.47655 8.97008 8.92981 8.29173C9.38308 7.61338 9.625 6.81585 9.625 6C9.625 4.90598 9.19041 3.85677 8.41682 3.08319C7.64323 2.3096 6.59402 1.875 5.5 1.875Z" fill="#29ADCE"/>
<path d="M7.07781 8.0625L5.15625 6.14094V2.90625H5.84375V5.85562L7.5625 7.57781L7.07781 8.0625Z" fill="#29ADCE"/>
</svg>
