<svg width="48" height="48" viewBox="0 0 48 48" fill="none" xmlns="http://www.w3.org/2000/svg">
<rect width="48" height="48" rx="24" fill="#BF0D3E" fill-opacity="0.1"/>
<path d="M33 24V28.5H15V16.5H20.25V15H15C14.6022 15 14.2206 15.158 13.9393 15.4393C13.658 15.7206 13.5 16.1022 13.5 16.5V28.5C13.5 28.8978 13.658 29.2794 13.9393 29.5607C14.2206 29.842 14.6022 30 15 30H21V33H18V34.5H30V33H27V30H33C33.3978 30 33.7794 29.842 34.0607 29.5607C34.342 29.2794 34.5 28.8978 34.5 28.5V24H33ZM25.5 33H22.5V30H25.5V33Z" fill="#BF0D3E"/>
<path d="M25.5 25.5001H25.4925C25.3309 25.4984 25.1742 25.4445 25.0456 25.3466C24.9171 25.2486 24.8237 25.1117 24.7792 24.9563L23.4345 20.2501H20.25V18.7501H24C24.163 18.75 24.3216 18.803 24.4518 18.9011C24.582 18.9992 24.6767 19.1371 24.7215 19.2938L25.527 22.1138L27.7838 14.7788C27.8324 14.6266 27.9278 14.4936 28.0564 14.3987C28.185 14.3038 28.3402 14.2518 28.5 14.2501C28.658 14.2477 28.8126 14.2963 28.9408 14.3887C29.069 14.4811 29.164 14.6124 29.2118 14.7631L30.54 18.7501H34.5V20.2501H30C29.8425 20.2501 29.689 20.2006 29.5613 20.1085C29.4335 20.0164 29.338 19.8865 29.2882 19.7371L28.5285 17.4571L26.217 24.9706C26.1698 25.1239 26.0747 25.2581 25.9457 25.3534C25.8166 25.4487 25.6604 25.5001 25.5 25.5001Z" fill="#BF0D3E"/>
</svg>
