<svg width="48" height="48" viewBox="0 0 48 48" fill="none" xmlns="http://www.w3.org/2000/svg">
<rect width="48" height="48" rx="24" fill="#43B02A" fill-opacity="0.1"/>
<path d="M28.1233 17C28.6756 17 29.1233 16.5523 29.1233 16C29.1233 15.4477 28.6756 15 28.1233 15C27.571 15 27.1233 15.4477 27.1233 16C27.1233 16.5523 27.571 17 28.1233 17Z" fill="#43B02A"/>
<path d="M31.1233 17C31.6756 17 32.1233 16.5523 32.1233 16C32.1233 15.4477 31.6756 15 31.1233 15C30.571 15 30.1233 15.4477 30.1233 16C30.1233 16.5523 30.571 17 31.1233 17Z" fill="#43B02A"/>
<path d="M34.1233 17C34.6756 17 35.1233 16.5523 35.1233 16C35.1233 15.4477 34.6756 15 34.1233 15C33.571 15 33.1233 15.4477 33.1233 16C33.1233 16.5523 33.571 17 34.1233 17Z" fill="#43B02A"/>
<path d="M36.1233 12H12.1233C11.593 12.0005 11.0846 12.2114 10.7097 12.5864C10.3347 12.9613 10.1238 13.4697 10.1233 14V34C10.1238 34.5303 10.3347 35.0387 10.7097 35.4136C11.0846 35.7886 11.593 35.9995 12.1233 36H36.1233C36.6536 35.9995 37.162 35.7886 37.5369 35.4136C37.9119 35.0387 38.1228 34.5303 38.1233 34V14C38.1228 13.4697 37.9119 12.9613 37.5369 12.5864C37.162 12.2114 36.6536 12.0005 36.1233 12V12ZM36.1233 14V18H12.1233V14H36.1233ZM12.1233 20H18.1233V34H12.1233V20ZM20.1233 34V20H36.1233V34H20.1233Z" fill="#43B02A"/>
</svg>
