<svg width="12" height="12" viewBox="0 0 12 12" fill="none" xmlns="http://www.w3.org/2000/svg">
<path d="M4.25 4.5C4.1837 4.5 4.12011 4.47366 4.07322 4.42678C4.02634 4.37989 4 4.3163 4 4.25C4 4.1837 4.02634 4.12011 4.07322 4.07322C4.12011 4.02634 4.1837 4 4.25 4C4.3163 4 4.37989 4.02634 4.42678 4.07322C4.47366 4.12011 4.5 4.1837 4.5 4.25C4.5 4.3163 4.47366 4.37989 4.42678 4.42678C4.37989 4.47366 4.3163 4.5 4.25 4.5Z" fill="#D0A201" stroke="#D0A201" stroke-width="0.75" stroke-linecap="round" stroke-linejoin="round"/>
<path d="M7.75 4.5C7.6837 4.5 7.62011 4.47366 7.57322 4.42678C7.52634 4.37989 7.5 4.3163 7.5 4.25C7.5 4.1837 7.52634 4.12011 7.57322 4.07322C7.62011 4.02634 7.6837 4 7.75 4C7.8163 4 7.87989 4.02634 7.92678 4.07322C7.97366 4.12011 8 4.1837 8 4.25C8 4.3163 7.97366 4.37989 7.92678 4.42678C7.87989 4.47366 7.8163 4.5 7.75 4.5Z" fill="#D0A201" stroke="#D0A201" stroke-width="0.75" stroke-linecap="round" stroke-linejoin="round"/>
<path d="M6 11C8.7615 11 11 8.7615 11 6C11 3.2385 8.7615 1 6 1C3.2385 1 1 3.2385 1 6C1 8.7615 3.2385 11 6 11Z" stroke="#D0A201" stroke-width="0.75" stroke-linecap="round" stroke-linejoin="round"/>
<path d="M3.75 7.75C3.75 7.75 4.5 6.75 6 6.75C7.5 6.75 8.25 7.75 8.25 7.75" stroke="#D0A201" stroke-width="0.75" stroke-linecap="round" stroke-linejoin="round"/>
</svg>
