<svg width="12" height="12" viewBox="0 0 12 12" fill="none" xmlns="http://www.w3.org/2000/svg">
<path d="M6 11C3.2385 11 1 8.7615 1 6C1 3.2385 3.2385 1 6 1C8.7615 1 11 3.2385 11 6C11 8.7615 8.7615 11 6 11Z" stroke="#019CD0" stroke-width="0.75" stroke-linecap="round" stroke-linejoin="round"/>
<path d="M8.25 7.25C8.25 7.25 7.5 8.25 6 8.25C4.5 8.25 3.75 7.25 3.75 7.25" stroke="#019CD0" stroke-width="0.75" stroke-linecap="round" stroke-linejoin="round"/>
<path d="M7.75 4.5C7.6837 4.5 7.62011 4.47366 7.57322 4.42678C7.52634 4.37989 7.5 4.3163 7.5 4.25C7.5 4.1837 7.52634 4.12011 7.57322 4.07322C7.62011 4.02634 7.6837 4 7.75 4C7.8163 4 7.87989 4.02634 7.92678 4.07322C7.97366 4.12011 8 4.1837 8 4.25C8 4.3163 7.97366 4.37989 7.92678 4.42678C7.87989 4.47366 7.8163 4.5 7.75 4.5Z" fill="#019CD0" stroke="#019CD0" stroke-width="0.75" stroke-linecap="round" stroke-linejoin="round"/>
<path d="M4.25 4.5C4.1837 4.5 4.12011 4.47366 4.07322 4.42678C4.02634 4.37989 4 4.3163 4 4.25C4 4.1837 4.02634 4.12011 4.07322 4.07322C4.12011 4.02634 4.1837 4 4.25 4C4.3163 4 4.37989 4.02634 4.42678 4.07322C4.47366 4.12011 4.5 4.1837 4.5 4.25C4.5 4.3163 4.47366 4.37989 4.42678 4.42678C4.37989 4.47366 4.3163 4.5 4.25 4.5Z" fill="#019CD0" stroke="#019CD0" stroke-width="0.75" stroke-linecap="round" stroke-linejoin="round"/>
</svg>
