<svg width="26" height="28" viewBox="0 0 26 28" fill="none" xmlns="http://www.w3.org/2000/svg">
<path d="M17 4.33341V1.66675V4.33341ZM17 4.33341V7.00008V4.33341ZM17 4.33341H11H17ZM1 12.3334V24.3334C1 25.0407 1.28095 25.7189 1.78105 26.219C2.28115 26.7191 2.95942 27.0001 3.66667 27.0001H22.3333C23.0406 27.0001 23.7189 26.7191 24.219 26.219C24.719 25.7189 25 25.0407 25 24.3334V12.3334H1Z" stroke="black" stroke-width="2" stroke-linecap="round" stroke-linejoin="round"/>
<path d="M1 12.3333V6.99992C1 6.29267 1.28095 5.6144 1.78105 5.1143C2.28115 4.6142 2.95942 4.33325 3.66667 4.33325H6.33333" stroke="black" stroke-width="2" stroke-linecap="round" stroke-linejoin="round"/>
<path d="M6.33331 1.66675V7.00008" stroke="black" stroke-width="2" stroke-linecap="round" stroke-linejoin="round"/>
<path d="M25 12.3333V6.99992C25 6.29267 24.7191 5.6144 24.219 5.1143C23.7189 4.6142 23.0406 4.33325 22.3334 4.33325H21.6667" stroke="black" stroke-width="2" stroke-linecap="round" stroke-linejoin="round"/>
</svg>
