<svg width="30" height="26" viewBox="0 0 30 26" fill="none" xmlns="http://www.w3.org/2000/svg">
<path d="M3 10.3333V22.3333C3 23.0405 3.28095 23.7188 3.78105 24.2189C4.28115 24.719 4.95942 24.9999 5.66667 24.9999H24.3333C25.0406 24.9999 25.7189 24.719 26.219 24.2189C26.719 23.7188 27 23.0405 27 22.3333V10.3333" stroke="black" stroke-width="2"/>
<path d="M18.7773 24.9999V16.9999C18.7773 16.2927 18.4964 15.6144 17.9963 15.1143C17.4962 14.6142 16.8179 14.3333 16.1107 14.3333H13.444C12.7368 14.3333 12.0585 14.6142 11.5584 15.1143C11.0583 15.6144 10.7773 16.2927 10.7773 16.9999V24.9999" stroke="black" stroke-width="2" stroke-miterlimit="16"/>
<path d="M28.0906 9.48533L25.832 1.58C25.7842 1.41286 25.6832 1.26585 25.5444 1.1612C25.4056 1.05655 25.2365 0.999961 25.0626 1H19.6666L20.3 8.60533C20.3095 8.72763 20.3482 8.84586 20.4126 8.95022C20.4771 9.05458 20.5656 9.14204 20.6706 9.20533C21.1906 9.516 22.2066 10.0893 23 10.3333C24.3546 10.7507 26.3333 10.6 27.4613 10.4613C27.571 10.4472 27.6762 10.4092 27.7697 10.3502C27.8632 10.2911 27.9427 10.2124 28.0026 10.1195C28.0625 10.0265 28.1014 9.92165 28.1166 9.81212C28.1318 9.7026 28.123 9.59107 28.0906 9.48533Z" stroke="black" stroke-width="2"/>
<path d="M17.6668 10.3333C18.4241 10.1 19.3841 9.568 19.9201 9.25067C20.045 9.1763 20.1464 9.0681 20.2125 8.93857C20.2785 8.80905 20.3066 8.66347 20.2934 8.51867L19.6668 1H10.3334L9.70677 8.51867C9.69335 8.66369 9.72129 8.80954 9.78737 8.93933C9.85344 9.06912 9.95494 9.17753 10.0801 9.252C10.6161 9.568 11.5761 10.1 12.3334 10.3333C14.3241 10.9467 15.6761 10.9467 17.6668 10.3333V10.3333Z" stroke="black" stroke-width="2"/>
<path d="M4.16807 1.58L1.9094 9.48667C1.87752 9.59224 1.869 9.70349 1.88443 9.81269C1.89985 9.92188 1.93886 10.0264 1.99874 10.119C2.05862 10.2116 2.13794 10.2901 2.23118 10.349C2.32443 10.4079 2.42938 10.4457 2.53874 10.46C3.6654 10.6 5.6454 10.7493 7.00007 10.3333C7.7934 10.0893 8.81074 9.516 9.3294 9.20667C9.43465 9.14324 9.52321 9.05557 9.58769 8.95097C9.65217 8.84636 9.6907 8.72786 9.70007 8.60533L10.3334 1H4.9374C4.76356 0.999961 4.59444 1.05655 4.45563 1.1612C4.31682 1.26585 4.21588 1.41286 4.16807 1.58V1.58Z" stroke="black" stroke-width="2"/>
</svg>
