<svg width="14" height="14" viewBox="0 0 14 14" fill="none" xmlns="http://www.w3.org/2000/svg">
<path d="M1 1L13 13" stroke="#989797" stroke-linecap="round" stroke-linejoin="round"/>
<path d="M5.99997 6.11816C5.77535 6.3725 5.65615 6.70292 5.66666 7.04209C5.67717 7.38125 5.8166 7.70365 6.05654 7.9436C6.29648 8.18354 6.61888 8.32297 6.95805 8.33348C7.29722 8.34399 7.62763 8.22479 7.88197 8.00016" stroke="#989797" stroke-linecap="round" stroke-linejoin="round"/>
<path d="M3.908 4.04102C2.78667 4.82702 1.85267 5.94702 1 7.00035C2.25933 8.99435 4.52133 11.0003 7 11.0003C8.03333 11.0003 9.02867 10.6517 9.93 10.1003" stroke="#989797" stroke-linecap="round" stroke-linejoin="round"/>
<path d="M7 3C9.672 3 11.4673 5.10533 13 7C12.7803 7.34718 12.5404 7.6811 12.2813 8" stroke="#989797" stroke-linecap="round" stroke-linejoin="round"/>
</svg>
