<svg width="30" height="26" viewBox="0 0 30 26" fill="none" xmlns="http://www.w3.org/2000/svg">
<path d="M19 7.66667V15.6667M11 7.66667H4.33335C3.62611 7.66667 2.94783 7.94762 2.44774 8.44772C1.94764 8.94781 1.66669 9.62609 1.66669 10.3333V22.3333C1.66669 23.0406 1.94764 23.7189 2.44774 24.219C2.94783 24.719 3.62611 25 4.33335 25H25.6667C26.3739 25 27.0522 24.719 27.5523 24.219C28.0524 23.7189 28.3334 23.0406 28.3334 22.3333V10.3333C28.3334 9.62609 28.0524 8.94781 27.5523 8.44772C27.0522 7.94762 26.3739 7.66667 25.6667 7.66667H19H11ZM11 7.66667V1.8C11 1.58783 11.0843 1.38434 11.2343 1.23431C11.3844 1.08429 11.5878 1 11.8 1H18.2C18.4122 1 18.6157 1.08429 18.7657 1.23431C18.9157 1.38434 19 1.58783 19 1.8V7.66667H11ZM11 7.66667H19H11ZM11 7.66667V15.6667V7.66667Z" stroke="black" stroke-width="2" stroke-linecap="round" stroke-linejoin="round"/>
</svg>
