<svg width="32" height="32" viewBox="0 0 32 32" fill="none" xmlns="http://www.w3.org/2000/svg">
<path d="M3.59338 9.57984L15.5934 14.9132L16.4067 13.0865L4.40672 7.75317L3.59338 9.57984ZM17 28.6665V13.9998H15.0001V28.6665H17ZM16.4067 14.9132L28.4067 9.57984L27.5934 7.75317L15.5934 13.0865L16.4067 14.9132Z" fill="black"/>
<path d="M4.00006 22.8133V9.18667C4.0001 9.03204 4.04495 8.88073 4.12919 8.75105C4.21344 8.62138 4.33346 8.51889 4.47473 8.45601L15.6747 3.47734C15.7771 3.43176 15.888 3.4082 16.0001 3.4082C16.1122 3.4082 16.223 3.43176 16.3254 3.47734L27.5254 8.45601C27.6667 8.51889 27.7867 8.62138 27.8709 8.75105C27.9552 8.88073 28 9.03204 28.0001 9.18667V22.8133C28 22.968 27.9552 23.1193 27.8709 23.249C27.7867 23.3786 27.6667 23.4811 27.5254 23.544L16.3254 28.5227C16.223 28.5683 16.1122 28.5918 16.0001 28.5918C15.888 28.5918 15.7771 28.5683 15.6747 28.5227L4.47473 23.544C4.33346 23.4811 4.21344 23.3786 4.12919 23.249C4.04495 23.1193 4.0001 22.968 4.00006 22.8133V22.8133Z" stroke="black" stroke-width="2" stroke-linecap="round" stroke-linejoin="round"/>
<path d="M10.0001 6.00024L21.5254 11.1229C21.6667 11.1858 21.7867 11.2883 21.8709 11.418C21.9552 11.5476 22 11.6989 22.0001 11.8536V16.6669" stroke="black" stroke-width="2" stroke-linecap="round" stroke-linejoin="round"/>
</svg>
