<svg width="14" height="10" viewBox="0 0 14 10" fill="none" xmlns="http://www.w3.org/2000/svg">
<path d="M6.99935 6.33366C7.35297 6.33366 7.69211 6.19318 7.94216 5.94313C8.19221 5.69309 8.33268 5.35395 8.33268 5.00033C8.33268 4.6467 8.19221 4.30757 7.94216 4.05752C7.69211 3.80747 7.35297 3.66699 6.99935 3.66699C6.64573 3.66699 6.30659 3.80747 6.05654 4.05752C5.80649 4.30757 5.66602 4.6467 5.66602 5.00033C5.66602 5.35395 5.80649 5.69309 6.05654 5.94313C6.30659 6.19318 6.64573 6.33366 6.99935 6.33366Z" stroke="#989797" stroke-linecap="round" stroke-linejoin="round"/>
<path d="M13 5C11.7407 6.994 9.47867 9 7 9C4.52133 9 2.25933 6.994 1 5C2.53267 3.10533 4.328 1 7 1C9.672 1 11.4673 3.10533 13 5Z" stroke="#989797" stroke-linecap="round" stroke-linejoin="round"/>
</svg>
