<svg width="32" height="32" viewBox="0 0 32 32" fill="none" xmlns="http://www.w3.org/2000/svg">
<path d="M26.6667 16.0001V7.66541C26.6668 7.56017 26.6461 7.45594 26.6058 7.3587C26.5656 7.26146 26.5065 7.17312 26.432 7.09875L22.2347 2.90141C22.0848 2.75134 21.8815 2.66693 21.6694 2.66675H6.13337C5.9212 2.66675 5.71772 2.75103 5.56769 2.90106C5.41766 3.05109 5.33337 3.25457 5.33337 3.46675V28.5334C5.33337 28.7456 5.41766 28.9491 5.56769 29.0991C5.71772 29.2491 5.9212 29.3334 6.13337 29.3334H14.6667" stroke="black" stroke-width="2" stroke-linecap="round" stroke-linejoin="round"/>
<path d="M10.6667 18.6667H14.6667M10.6667 13.3333H21.3334H10.6667ZM10.6667 8H16.0001H10.6667Z" stroke="black" stroke-width="2" stroke-linecap="round" stroke-linejoin="round"/>
<path d="M21.3334 7.19997V3.13864C21.3335 3.04541 21.3613 2.95432 21.4132 2.87685C21.4651 2.79939 21.5387 2.73902 21.6249 2.70336C21.711 2.66771 21.8058 2.65836 21.8972 2.6765C21.9887 2.69465 22.0727 2.73947 22.1387 2.80531L26.528 7.19464C26.5945 7.2604 26.6399 7.34447 26.6585 7.43614C26.677 7.5278 26.6678 7.62291 26.632 7.70932C26.5962 7.79572 26.5355 7.86952 26.4576 7.92129C26.3798 7.97306 26.2882 8.00045 26.1947 7.99997H22.1334C21.9212 7.99997 21.7177 7.91569 21.5677 7.76566C21.4177 7.61563 21.3334 7.41215 21.3334 7.19997Z" fill="black" stroke="black" stroke-width="2" stroke-linecap="round" stroke-linejoin="round"/>
<path d="M23.9387 22.5854L26.0534 24.7001M23.9387 22.5867L25.2721 21.2534C25.4109 21.1145 25.5757 21.0043 25.7571 20.9291C25.9386 20.8539 26.133 20.8152 26.3294 20.8152C26.5258 20.8152 26.7203 20.8539 26.9017 20.9291C27.0831 21.0043 27.2479 21.1145 27.3867 21.2534C27.6669 21.5337 27.8243 21.9138 27.8243 22.3101C27.8243 22.7064 27.6669 23.0865 27.3867 23.3667L26.0534 24.7001L23.9387 22.5867ZM23.9387 22.5854L19.9507 26.5734C19.7513 26.7734 19.6206 27.0316 19.5774 27.3107L19.2521 29.3867L21.3281 29.0627C21.6072 29.0195 21.8654 28.8888 22.0654 28.6894L26.0521 24.7001L23.9387 22.5854Z" stroke="black" stroke-width="2" stroke-linecap="round" stroke-linejoin="round"/>
</svg>
