<svg width="20" height="20" viewBox="0 0 20 20" fill="none" xmlns="http://www.w3.org/2000/svg">
<path d="M17 9V18.4C17 18.5591 16.9368 18.7117 16.8243 18.8243C16.7117 18.9368 16.5591 19 16.4 19H3.6C3.44087 19 3.28826 18.9368 3.17574 18.8243C3.06321 18.7117 3 18.5591 3 18.4V9" stroke="#989797" stroke-width="1.5" stroke-linecap="round" stroke-linejoin="round"/>
<path d="M8 15V9" stroke="#989797" stroke-width="1.5" stroke-linecap="round" stroke-linejoin="round"/>
<path d="M12 15V9" stroke="#989797" stroke-width="1.5" stroke-linecap="round" stroke-linejoin="round"/>
<path d="M6 5H14M19 5H14H19ZM1 5H6H1ZM6 5V1.6C6 1.44087 6.06321 1.28826 6.17574 1.17574C6.28826 1.06321 6.44087 1 6.6 1H13.4C13.5591 1 13.7117 1.06321 13.8243 1.17574C13.9368 1.28826 14 1.44087 14 1.6V5H6Z" stroke="#989797" stroke-width="1.5" stroke-linecap="round" stroke-linejoin="round"/>
</svg>
